<!-- Created with Inkscape (http://www.inkscape.org/) by Steadfast-->
<svg fill="#a1a1aa" role="img" aria-label="A. Lange & Söhne"
   xmlns:svg="http://www.w3.org/2000/svg"
   xmlns="http://www.w3.org/2000/svg"
   version="1.0"
  
  
   id="svg2670"><title>A. Lange & Söhne</title>
  <defs
     id="defs2672">
    <clipPath
       id="clipPath241">
      <path
         d="M 340.006,793.418 L 113.386,793.418 L 113.386,750.021 L 340.006,750.021 L 340.006,793.418 z"
         id="path243" />
    </clipPath>
  </defs>
  <g
     id="layer1">
    <g
       transform="matrix(3.8831606,0,0,-3.8831606,-430.2979,3090.7108)"
       id="g237">
      <g
         clip-path="url(#clipPath241)"
         id="g239">
        <g
           transform="translate(281.202,753.31)"
           id="g245">
          <path
             d="M 0,0 C 0.053,0.367 0.366,1.202 0.889,1.358 L 1.619,0.105 C 1.15,-0.104 0.523,0 0,0 z M 1.619,3.134 L 0.889,3.134 C -0.417,1.411 -1.096,-0.574 -2.767,-2.141 C -3.238,-2.402 -4.073,-2.402 -4.229,-2.924 C -2.924,-3.081 -1.253,-3.185 0,-2.767 C -0.47,-2.663 -0.94,-2.506 -1.357,-2.141 C -1.253,-1.671 -1.044,-1.044 -0.626,-0.783 C 0.627,-1.044 2.612,0 3.029,-1.775 C 3.656,-2.663 2.038,-2.454 2.142,-3.028 L 6.633,-2.924 L 6.633,-2.663 L 5.641,-2.506 L 1.619,3.134 z M -97.135,0.47 C -96.978,0.993 -96.769,1.724 -96.142,1.881 L -95.359,0.628 L -97.135,0.47 z M -95.516,3.604 L -96.351,3.604 C -97.866,1.985 -98.336,-0.104 -100.112,-1.671 C -100.424,-2.245 -101.678,-1.515 -101.521,-2.402 C -100.164,-2.559 -98.492,-2.663 -97.239,-2.297 C -97.396,-1.461 -98.962,-2.402 -98.649,-1.149 C -98.388,0.679 -96.195,-0.469 -94.993,-0.156 C -94.628,-0.626 -94.106,-1.253 -94.106,-1.775 C -94.471,-1.984 -95.307,-1.827 -95.098,-2.506 L -90.607,-2.402 L -90.607,-2.141 C -91.129,-2.141 -91.494,-1.88 -91.965,-1.775 L -95.516,3.604 z M -10.392,1.619 C -10.496,2.508 -9.504,2.194 -9.139,2.612 C -7.728,2.508 -6.527,1.985 -6.005,0.628 C -7.467,0.575 -9.034,1.097 -10.392,1.619 z M -5.9,0.367 C -5.013,0.731 -5.431,2.246 -5.483,3.134 C -6.11,3.395 -5.953,2.455 -6.527,2.612 C -8.042,3.343 -10.653,3.5 -11.75,1.985 C -12.168,-0.731 -8.512,0.105 -6.893,-0.783 C -6.475,-0.992 -5.744,-1.566 -6.371,-2.036 C -7.102,-2.924 -8.46,-2.35 -9.504,-2.506 C -10.496,-2.036 -11.279,-0.992 -11.645,0 C -12.533,-0.469 -12.063,-2.088 -12.01,-3.028 C -11.332,-2.767 -10.81,-2.35 -10.131,-2.924 C -8.408,-2.924 -6.058,-3.603 -4.856,-1.775 C -4.334,-0.887 -5.17,-0.104 -5.9,0.367 z M -88.361,2.246 C -88.204,2.716 -87.682,2.873 -87.212,2.978 C -85.854,2.978 -84.392,2.82 -83.818,1.358 C -83.818,1.254 -83.87,1.045 -83.713,0.993 C -85.176,1.306 -86.951,1.411 -88.361,2.246 z M -83.452,0.731 C -82.826,1.463 -83.139,2.716 -83.191,3.604 C -83.818,3.918 -83.609,3.082 -84.079,3.134 C -85.75,3.813 -88.466,4.126 -89.719,2.351 C -89.771,-0.156 -86.742,0.523 -85.071,-0.156 C -84.601,-0.313 -83.766,-0.679 -83.974,-1.409 C -84.862,-2.297 -86.481,-2.297 -87.578,-1.88 C -88.831,-1.515 -88.936,0.052 -89.876,0.47 C -90.084,-0.469 -90.032,-1.566 -89.876,-2.506 L -89.458,-2.506 C -88.727,-1.461 -87.787,-2.924 -86.742,-2.663 C -85.176,-2.767 -83.609,-2.611 -82.721,-1.409 C -82.408,-0.626 -82.564,0.367 -83.452,0.731 z M -31.333,-0.626 C -31.856,-2.088 -33.474,-2.454 -34.937,-2.402 C -36.504,-2.559 -35.668,-0.626 -35.72,0.105 C -34.414,0.628 -33.996,-0.887 -33.318,-1.253 C -33.161,-0.208 -33.161,1.045 -33.318,2.09 L -33.579,2.09 C -33.788,2.037 -33.683,1.776 -33.683,1.619 C -33.944,0.784 -34.937,0.367 -35.72,0.731 C -35.72,1.411 -36.242,2.09 -35.563,2.612 C -34.414,2.82 -33.005,2.82 -32.065,2.09 C -31.438,1.776 -31.908,0.679 -30.968,0.836 C -30.968,1.619 -30.863,2.508 -31.072,3.239 L -38.958,3.239 L -38.958,2.716 C -38.54,3.029 -38.071,2.768 -37.705,2.508 C -37.757,0.784 -37.6,-0.521 -37.861,-2.141 C -38.227,-2.35 -39.062,-2.193 -39.115,-2.767 L -30.811,-2.767 L -30.811,-0.261 C -31.177,-0.156 -31.177,-0.417 -31.333,-0.626 z M -115.935,0.628 C -115.099,0.314 -114.055,-0.104 -114.682,-1.253 C -115.465,-2.036 -116.875,-1.723 -117.919,-1.671 C -119.173,-0.992 -119.016,0.628 -118.808,1.881 C -118.494,2.508 -118.076,3.134 -117.293,3.239 C -116.248,3.29 -115.308,3.186 -114.525,2.612 L -113.533,1.097 C -114.264,0.784 -115.569,1.306 -115.935,0.628 z M -113.167,1.097 C -113.01,2.09 -112.906,3.134 -113.428,3.969 L -114.055,3.343 C -115.308,3.656 -116.718,4.387 -118.076,3.761 C -119.538,3.395 -120.74,1.933 -120.948,0.367 C -120.374,-1.096 -119.225,-2.088 -117.658,-2.402 C -115.935,-3.133 -114.107,-0.887 -112.906,-2.402 C -112.697,-1.775 -112.802,-0.992 -112.802,-0.261 C -112.802,0.628 -111.757,0.157 -111.287,0.47 C -111.496,1.254 -112.697,0.523 -113.167,1.097 z M -48.358,3.343 L -48.515,0.731 C -47.157,0.367 -48.097,2.403 -46.74,2.716 C -46.374,2.873 -45.695,3.029 -45.382,2.612 L -45.224,-1.409 C -45.224,-2.767 -47,-1.566 -47,-2.663 C -45.382,-2.82 -43.501,-2.82 -41.83,-2.663 L -41.83,-2.402 C -42.248,-2.297 -42.613,-2.036 -43.084,-2.141 C -44.024,-1.253 -43.449,0.628 -43.606,1.724 C -43.658,2.508 -43.188,2.925 -42.352,2.716 C -41.36,2.298 -41.308,0.941 -40.472,0.628 C -40.316,1.463 -40.211,2.612 -40.577,3.343 L -48.358,3.343 z M -58.542,3.5 L -58.646,0.731 C -57.654,0.731 -58.072,2.142 -57.132,2.612 C -56.766,2.978 -55.878,2.978 -55.513,2.612 L -55.513,-1.515 C -55.617,-2.82 -57.34,-1.515 -57.288,-2.663 C -55.722,-2.871 -53.998,-2.767 -52.379,-2.767 L -52.014,-2.402 C -52.484,-1.827 -53.528,-2.506 -53.737,-1.671 C -53.685,-0.156 -53.998,1.515 -53.528,2.873 C -52.902,2.925 -52.327,2.82 -51.857,2.351 C -51.23,1.933 -51.648,0.575 -50.604,0.731 L -50.76,3.343 L -58.542,3.5 z M -64.025,3.343 L -64.025,2.978 C -63.555,2.768 -62.876,2.978 -62.511,2.351 C -62.458,1.045 -62.145,-0.626 -62.772,-1.775 C -63.712,-2.454 -65.122,-2.141 -66.166,-2.036 C -67.524,-1.201 -66.689,0.731 -66.898,2.09 C -67.211,3.239 -65.905,2.664 -65.435,2.978 L -65.435,3.5 L -70.031,3.5 L -70.187,2.978 C -69.665,3.082 -69.248,2.82 -68.778,2.716 C -68.308,1.463 -68.621,-0.104 -68.568,-1.515 C -67.367,-3.028 -65.122,-2.82 -63.294,-2.663 C -60.892,-2.35 -62.093,0.367 -61.779,1.985 C -61.623,2.716 -60.892,3.029 -60.161,2.873 L -60.161,3.239 C -61.205,3.656 -62.824,3.5 -64.025,3.343 z M -71.284,3.343 C -72.799,3.552 -74.574,3.552 -76.089,3.343 L -76.089,3.239 C -75.828,2.768 -75.306,3.082 -74.94,2.978 C -74.052,2.82 -74.574,1.829 -74.418,1.254 C -75.201,0.523 -76.715,0.993 -77.812,0.836 C -78.491,1.045 -78.073,1.933 -78.178,2.508 C -77.916,3.134 -76.872,2.716 -76.558,3.343 C -78.073,3.604 -79.744,3.447 -81.311,3.5 C -81.572,2.716 -80.684,3.082 -80.318,2.978 C -79.431,1.933 -80.006,0.052 -79.849,-1.409 C -80.058,-1.984 -80.684,-2.297 -81.311,-2.141 L -81.311,-2.506 L -76.558,-2.506 C -76.715,-1.88 -77.812,-2.297 -78.178,-1.671 C -78.125,-0.939 -78.439,-0.104 -77.969,0.47 C -76.768,0.418 -75.462,0.628 -74.418,0.209 L -74.418,-1.775 C -74.888,-2.193 -75.723,-1.984 -76.089,-2.402 C -74.626,-2.82 -72.799,-2.663 -71.284,-2.506 C -71.389,-1.827 -72.538,-2.454 -72.694,-1.671 L -72.538,2.716 C -72.276,3.29 -71.18,2.612 -71.284,3.343 z M -14.048,3.761 C -15.823,1.567 -17.39,-0.887 -18.904,-3.289 L -18.173,-3.289 C -16.45,-1.044 -14.935,1.254 -13.525,3.604 C -13.63,3.813 -13.891,3.708 -14.048,3.761 z M -103.401,-1.044 C -104.185,-2.193 -105.752,-1.88 -106.9,-1.775 C -107.37,-0.521 -107.057,1.097 -107.162,2.508 C -106.848,3.134 -106.065,3.29 -105.386,3.343 L -105.386,3.5 C -106.691,3.656 -108.885,3.656 -110.556,3.5 L -110.556,3.343 C -110.347,3.134 -110.034,3.29 -109.773,3.239 C -107.945,2.664 -109.146,0.209 -108.78,-1.253 C -108.885,-2.559 -110.452,-1.305 -110.556,-2.402 C -107.84,-2.611 -104.968,-2.611 -102.252,-2.402 L -102.409,0.105 C -103.088,0.105 -102.932,-0.731 -103.401,-1.044 z M -64.025,5.014 C -64.025,4.753 -64.13,4.283 -63.921,4.231 C -63.712,3.761 -63.19,3.865 -62.772,3.865 C -62.458,4.074 -61.936,4.387 -62.145,4.857 C -62.458,5.484 -63.608,5.85 -64.025,5.014 z M -66.532,5.484 C -66.95,5.327 -67.315,4.909 -67.158,4.387 C -66.845,3.918 -66.427,3.813 -65.905,3.865 C -65.487,4.074 -65.122,4.44 -65.278,5.014 C -65.592,5.432 -66.062,5.536 -66.532,5.484 z M -19.426,6.372 C -20.889,6.581 -22.508,6.476 -24.074,6.476 L -24.074,6.006 C -23.5,6.006 -22.873,6.111 -22.56,5.641 L -22.56,1.463 C -22.664,0.47 -23.97,1.254 -24.074,0.47 L -19.426,0.628 C -22.194,0.575 -20.314,3.656 -21.045,5.118 C -20.993,6.163 -19.635,5.745 -19.426,6.372 z M -161.421,6.372 L -164.816,4.492 L -164.92,8.252 C -163.771,7.73 -162.466,7.52 -161.421,6.737 L -161.421,6.372 z M -154.267,6.268 L -164.92,11.281 L -165.913,10.654 C -166.226,6.789 -165.234,3.186 -166.33,-0.626 C -166.748,-1.515 -168.002,-1.88 -167.792,-2.924 C -165.756,-1.775 -163.51,-0.679 -161.683,0.731 C -162.466,1.306 -163.197,0.157 -164.189,0.367 C -165.129,0.993 -164.973,2.455 -164.816,3.5 C -162.466,4.648 -159.907,7.73 -157.4,4.753 C -156.721,3.813 -158.706,3.552 -158.549,2.612 C -156.199,3.395 -153.849,5.275 -151.656,6.476 L -152.021,6.998 C -152.596,6.372 -153.379,6.111 -154.267,6.268 z M -149.88,9.609 C -150.35,9.401 -150.82,8.983 -150.663,8.356 C -150.716,7.52 -149.775,7.52 -149.149,7.52 C -148.47,7.834 -147.896,8.2 -148.157,9.14 C -148.366,9.818 -149.253,9.557 -149.88,9.609 z M 46.74,13.161 C 46.479,12.168 48.359,11.907 48.255,10.758 C 46.897,8.513 45.644,6.268 44.129,4.126 C 43.241,3.5 42.196,4.179 41.361,4.492 C 41.1,4.335 41.1,4.074 41.257,3.865 C 45.383,1.776 49.3,-0.731 53.425,-2.924 L 55.775,0.731 C 55.253,1.411 54.678,0.628 54.26,0.209 C 51.754,-1.357 48.934,0.314 46.897,1.724 C 45.957,3.343 47.941,4.44 48.516,5.745 C 49.404,5.589 50.135,4.701 50.761,4.126 C 51.492,3.343 50.5,2.455 50.657,1.724 L 51.284,1.619 C 52.38,3.134 53.32,4.753 54.156,6.372 C 53.32,7.155 53.216,5.484 52.38,5.484 C 51.336,5.327 50.135,5.641 49.247,6.372 C 48.829,7.416 49.926,8.409 50.657,9.244 C 52.433,9.662 54.208,8.2 55.514,6.998 C 56.714,5.85 56.454,4.283 56.14,2.978 L 56.663,2.873 C 57.394,3.969 58.282,4.962 58.804,6.111 C 55.044,8.774 50.814,10.968 46.74,13.161 z M 45.748,13.37 L 45.748,13.787 L 39.481,16.764 C 38.907,15.615 40.786,15.668 41.1,14.623 C 41.205,12.586 39.742,10.445 38.489,9.14 L 34.834,19.166 L 30.603,21.151 L 30.342,20.681 C 31.126,20.159 32.013,19.584 32.327,18.645 C 31.491,16.294 29.977,14.153 28.567,12.012 C 27.627,11.647 26.582,12.221 25.694,12.012 L 25.694,11.647 C 27.678,10.706 29.611,9.662 31.596,8.879 C 31.7,8.983 31.909,9.087 31.857,9.244 C 30.864,9.87 29.507,10.915 30.081,12.273 L 32.849,17.025 C 34.311,13.265 35.93,9.557 37.236,5.745 L 38.124,5.745 L 41.727,12.378 C 42.406,14.153 44.442,13.37 45.748,13.37 z M -133.221,19.428 C -133.012,17.6 -133.325,15.981 -134.84,14.884 C -136.25,14.309 -137.921,12.482 -139.383,13.892 L -142.255,20.786 C -142.099,21.934 -140.689,22.091 -140.114,22.665 L -140.48,23.032 L -148,19.898 L -148,19.532 C -147.582,19.375 -147.06,19.584 -146.642,19.793 C -146.016,19.95 -145.18,20.054 -144.762,19.428 C -143.665,17.078 -142.569,14.78 -141.89,12.273 C -142.046,11.176 -143.979,11.333 -143.613,10.236 C -139.383,12.012 -135.101,13.787 -130.818,15.511 C -131.236,16.869 -132.019,18.07 -132.49,19.428 L -133.221,19.428 z M -124.813,26.165 L -121.68,23.919 C -122.933,23.397 -124.082,22.874 -125.44,22.665 C -125.44,23.762 -125.022,25.015 -124.813,26.165 z M -123.716,18.645 C -124.5,18.54 -125.492,17.861 -126.223,18.645 C -126.223,19.741 -126.223,20.838 -125.701,21.674 C -123.925,21.987 -122.306,23.032 -120.583,23.188 C -119.695,22.404 -118.546,22.039 -118.076,20.89 C -118.546,20.159 -119.591,20.368 -119.8,19.532 C -117.293,19.95 -114.63,20.838 -112.175,21.934 C -113.01,22.718 -113.741,21.465 -114.682,22.039 L -123.821,28.932 C -124.343,29.299 -124.865,28.88 -125.335,28.671 L -127.476,19.166 C -127.842,17.861 -129.408,16.816 -130.192,16.033 C -127.842,16.033 -125.753,17.495 -123.455,18.018 C -123.403,18.279 -123.455,18.488 -123.716,18.645 z M 22.561,14.258 C 23.814,16.764 24.493,19.48 26.321,21.778 C 27.261,22.091 27.836,21.256 28.567,21.517 L 28.567,22.039 L 21.83,24.65 L 21.046,24.65 C 21.256,23.815 22.509,23.867 23.083,23.032 C 23.188,21.882 22.457,20.786 21.83,19.793 C 19.689,20.263 17.652,21.308 15.824,22.143 C 16.503,23.083 16.294,24.546 17.547,25.172 C 18.383,25.433 19.218,24.65 20.054,24.911 L 20.054,25.276 L 12.534,28.201 C 12.168,26.843 14.675,27.313 14.414,25.695 C 13.213,23.554 12.795,21.099 11.438,19.009 C 10.55,18.331 9.453,18.645 8.513,18.906 L 8.513,18.383 L 15.824,15.511 L 16.033,15.772 C 15.772,16.398 14.884,16.555 14.31,17.025 C 13.318,18.592 14.989,20.054 15.668,21.308 L 21.464,19.009 C 20.838,17.757 20.838,16.19 19.689,15.145 C 18.644,14.78 17.704,15.876 17.078,15.145 C 19.584,14.258 22.091,12.795 24.702,12.378 C 24.597,13.318 22.874,13.161 22.561,14.258 z M 4.283,21.778 C 2.507,20.681 0.366,21.621 -1.253,22.404 C -2.662,23.397 -2.767,25.59 -2.14,27.052 C -1.514,28.358 -0.94,29.82 0.523,30.551 C 2.821,30.917 5.954,30.447 6.79,27.784 C 6.738,25.433 6.11,23.032 4.283,21.778 z M 9.035,26.948 C 8.043,28.358 7.26,29.454 5.797,30.447 C 3.029,31.857 -1.253,32.171 -3.76,29.925 C -4.804,28.932 -5.222,27.679 -5.013,26.165 C -4.439,23.554 -1.984,21.674 0.366,20.786 C 3.186,20.107 6.894,20.159 8.669,22.665 C 9.558,23.971 9.61,25.433 9.035,26.948 z M 7.782,31.543 C 8.252,31.752 8.513,32.274 8.669,32.693 C 8.461,33.371 7.729,33.841 7.051,33.841 C 6.163,33.841 6.11,32.901 6.163,32.171 C 6.633,31.804 7.103,31.387 7.782,31.543 z M 3.395,32.797 C 4.022,33.006 4.544,33.371 4.648,34.05 C 4.44,34.938 3.5,35.147 2.768,35.199 C 2.298,34.99 1.88,34.468 1.88,33.946 C 2.194,33.267 2.768,33.058 3.395,32.797 z M -47,32.693 C -46.06,33.998 -44.755,34.886 -43.501,35.565 C -42.561,34.625 -41.517,33.371 -41.36,32.171 C -42.927,31.335 -44.441,30.134 -46.478,30.813 C -47.157,31.23 -47.523,32.118 -47,32.693 z M -44.494,38.698 L -40.211,38.332 C -41.622,38.123 -43.919,35.826 -44.494,38.698 z M -40.577,31.543 L -38.227,29.299 C -37.287,28.671 -35.72,28.463 -34.728,28.932 L -35.355,29.82 C -37.391,29.35 -38.854,30.813 -39.846,32.327 C -38.958,33.11 -38.071,33.946 -36.817,33.946 C -35.407,34.207 -36.504,32.536 -35.459,32.171 C -34.937,31.961 -34.31,32.065 -33.944,32.588 C -33.474,33.371 -34.258,33.998 -34.728,34.468 C -36.817,35.46 -38.906,34.311 -40.472,32.954 C -41.151,34.05 -42.457,34.99 -42.457,36.191 C -40.682,37.393 -38.592,37.915 -36.608,38.593 C -36.504,38.802 -36.712,38.907 -36.817,39.063 C -40.107,39.22 -43.501,39.168 -46.478,40.108 L -46.635,39.586 C -45.434,38.854 -44.807,37.654 -44.128,36.557 C -46.374,35.356 -48.88,33.998 -50.395,31.7 C -50.708,30.917 -50.395,30.029 -49.873,29.454 C -46.583,27.418 -43.188,29.663 -40.577,31.543 z M -7.624,27.784 C -9.609,31.178 -13.943,30.917 -16.763,33.319 C -17.285,33.998 -16.45,34.521 -16.032,34.834 C -13.682,35.304 -11.018,34.782 -9.504,32.693 C -8.877,31.961 -9.348,30.29 -8.146,30.186 C -7.676,31.491 -7.52,33.11 -7.259,34.311 C -7.938,34.886 -8.146,33.632 -8.773,33.685 C -11.071,35.251 -14.257,36.452 -17.285,35.46 C -18.225,35.095 -19.374,34.259 -19.166,33.058 C -17.494,29.402 -12.846,30.134 -10.131,27.574 C -9.87,27 -9.922,26.478 -10.392,26.06 C -11.541,25.068 -13.316,25.276 -14.778,25.433 C -16.241,25.851 -17.704,26.896 -18.539,28.306 C -19.113,29.193 -18.8,30.76 -19.792,31.178 C -20.367,29.611 -20.732,27.94 -20.941,26.165 C -20.001,25.695 -19.844,27.104 -19.061,26.791 C -16.293,24.807 -12.272,23.71 -9.034,25.276 C -7.938,25.643 -7.676,26.791 -7.624,27.784 z M -110.922,31.074 C -110.19,28.88 -109.773,26.634 -109.302,24.441 C -109.668,23.345 -110.922,22.926 -111.652,22.404 L -111.392,22.039 C -109.25,22.561 -107.057,23.032 -104.916,23.554 L -104.916,24.023 L -105.752,24.023 C -109.512,23.501 -108.362,28.148 -109.668,30.186 L -109.302,30.551 L -98.492,24.807 L -97.866,25.068 C -98.336,27.993 -99.485,30.656 -99.746,33.685 C -99.432,34.99 -97.866,34.834 -97.396,35.721 C -99.798,36.035 -101.991,34.676 -104.29,34.468 L -104.394,34.311 C -103.872,33.632 -102.723,34.05 -101.887,33.946 C -100.112,32.64 -99.955,30.081 -99.746,28.045 C -103.036,29.82 -106.378,31.543 -109.512,33.319 L -114.159,32.171 C -113.637,31.23 -111.652,32.327 -110.922,31.074 z M -80.841,27.784 C -80.841,29.193 -81.363,30.604 -81.207,32.171 C -80.632,33.215 -79.431,32.693 -78.7,33.319 C -80.058,34.415 -81.468,32.849 -83.087,33.215 C -84.235,32.64 -86.116,33.319 -86.846,32.327 L -84.862,32.171 C -83.661,31.7 -83.974,30.29 -84.079,29.299 C -85.541,27.47 -88.361,27.104 -90.502,27.679 C -92.017,28.41 -92.852,30.134 -93.009,31.804 C -93.166,33.528 -92.904,34.99 -91.599,36.087 C -89.667,37.288 -86.638,37.445 -84.706,36.087 C -83.766,35.46 -83.4,34.05 -82.356,34.05 L -82.826,38.228 L -83.191,38.438 L -84.079,37.34 C -87.891,38.176 -92.33,37.81 -94.732,34.676 C -95.516,33.528 -96.299,32.171 -95.881,30.707 C -95.254,29.402 -94.315,28.254 -93.009,27.679 C -89.771,26.112 -85.228,26.634 -82.564,29.037 C -82.042,28.776 -81.624,28.201 -81.468,27.679 C -81.207,27.627 -80.998,27.732 -80.841,27.784 z M -75.044,37.445 L -74.835,30.081 L -75.201,29.559 C -75.775,28.828 -77.185,29.454 -77.342,28.567 C -72.642,28.567 -67.785,28.984 -63.033,29.193 C -62.928,30.707 -63.19,32.014 -63.294,33.424 C -63.555,33.528 -63.712,33.267 -63.921,33.215 C -63.921,31.961 -64.861,30.917 -65.905,30.29 C -67.838,29.768 -69.822,28.828 -71.806,29.925 C -72.224,31.074 -72.276,32.484 -72.068,33.841 C -70.918,33.998 -69.508,34.154 -68.673,33.215 C -68.151,32.745 -68.83,31.021 -67.524,31.7 C -67.472,33.58 -67.681,35.356 -67.785,37.184 C -68.934,37.34 -68.151,35.773 -68.934,35.304 C -69.822,34.625 -71.18,34.625 -72.328,34.834 C -72.172,35.93 -72.642,37.288 -71.911,38.228 C -69.717,38.75 -66.741,39.011 -65.017,37.184 C -64.495,36.713 -64.652,35.147 -63.555,35.721 C -64.182,36.975 -62.563,40.004 -64.913,39.69 C -68.882,39.063 -73.582,39.377 -77.812,38.959 L -77.812,38.593 C -77.029,38.123 -75.671,38.593 -75.044,37.445"
             id="path247"
             style="fill:#231f20;fill-opacity:1;fill-rule:nonzero;stroke:none" />
        </g>
      </g>
    </g>
  </g>
</svg>
