<!-- Created with Inkscape (http://www.inkscape.org/) by Steadfast-->
<svg fill="#a1a1aa" role="img" aria-label="Vacheron Constantin"
   xmlns:svg="http://www.w3.org/2000/svg"
   xmlns="http://www.w3.org/2000/svg"
   version="1.0"
  
  
   id="svg2964"><title>Vacheron Constantin</title>
  <defs
     id="defs2966" />
  <g
     id="layer1">
    <g
       transform="matrix(2.9780286,0,0,2.9780286,-470.52853,-382.22614)"
       id="g3029">
      <g
         transform="matrix(1.25,0,0,-1.25,311.82668,152.63901)"
         id="g243">
        <path
           d="M 0,0 C -0.22,0.91 0.402,1.506 1.356,1.255 L -3.399,3.372 C -2.445,3.121 -1.824,3.717 -2.044,4.627 L 0,0"
           id="path245"
           style="fill:#231f20;fill-opacity:1;fill-rule:nonzero;stroke:none" />
      </g>
      <g
         transform="matrix(1.25,0,0,-1.25,307.65668,151.02401)"
         id="g247">
        <path
           d="M 0,0 C 0.911,0.22 1.506,-0.402 1.256,-1.356 L 3.373,3.399 C 3.121,2.445 3.717,1.823 4.628,2.043 L 0,0"
           id="path249"
           style="fill:#231f20;fill-opacity:1;fill-rule:nonzero;stroke:none" />
      </g>
      <g
         transform="matrix(1.25,0,0,-1.25,175.66543,179.70276)"
         id="g251">
        <path
           d="M 0,0 L -4.538,-18.15 L -6.908,-18.15 L -11.446,0 L -8.672,0 L -5.714,-13.693 L -2.774,0 L 0,0"
           id="path253"
           style="fill:#231f20;fill-opacity:1;fill-rule:nonzero;stroke:none" />
      </g>
      <g
         transform="matrix(1.25,0,0,-1.25,181.46543,193.95651)"
         id="g255">
        <path
           d="M 0,0 L 3.436,0 L 1.654,7.046 L 0,0 z M 7.827,-6.747 L 5.016,-6.747 L 4.097,-3.112 L -0.863,-3.112 L -1.8,-6.747 L -4.611,-6.747 L 0.055,11.403 L 3.234,11.403 L 7.827,-6.747"
           id="path257"
           style="fill:#231f20;fill-opacity:1;fill-rule:nonzero;stroke:none" />
      </g>
      <g
         transform="matrix(1.25,0,0,-1.25,208.04793,194.64151)"
         id="g259">
        <path
           d="M 0,0 C -0.018,-1.843 -0.79,-3.933 -1.8,-5.004 C -2.59,-5.851 -4.097,-6.697 -5.75,-6.772 C -8.727,-6.896 -10.803,-4.307 -11.519,-0.472 C -11.666,0.374 -11.776,1.519 -11.776,2.714 C -11.776,3.934 -11.684,5.179 -11.464,6.2 C -10.711,9.586 -9.112,12.251 -5.64,12.251 C -4.684,12.251 -3.344,12.101 -2.039,10.831 C -0.11,9.063 -0.018,6.723 0,5.801 L -2.627,5.801 C -2.701,6.822 -3.325,9.387 -6.007,9.113 C -7.257,8.988 -8.23,7.769 -8.671,6.225 C -8.855,5.577 -9.039,4.382 -9.094,3.088 C -9.131,1.793 -9.039,0.398 -8.671,-0.722 C -8.23,-2.041 -7.624,-2.838 -6.944,-3.261 C -6.595,-3.461 -6.246,-3.56 -5.86,-3.56 C -5.493,-3.585 -5.089,-3.51 -4.703,-3.361 C -2.792,-2.639 -2.737,-0.796 -2.627,0 L 0,0"
           id="path261"
           style="fill:#231f20;fill-opacity:1;fill-rule:nonzero;stroke:none" />
      </g>
      <g
         transform="matrix(1.25,0,0,-1.25,211.09168,179.70276)"
         id="g263">
        <path
           d="M 0,0 L 2.755,0 L 2.755,-6.822 L 8.065,-6.822 L 8.065,0 L 10.821,0 L 10.821,-18.15 L 8.065,-18.15 L 8.065,-9.933 L 2.755,-9.933 L 2.755,-18.15 L 0,-18.15 L 0,0"
           id="path265"
           style="fill:#231f20;fill-opacity:1;fill-rule:nonzero;stroke:none" />
      </g>
      <g
         transform="matrix(1.25,0,0,-1.25,240.68293,179.70276)"
         id="g267">
        <path
           d="M 0,0 L 0,-3.112 L -6.945,-3.112 L -6.945,-7.245 L -0.533,-7.245 L -0.533,-10.357 L -6.945,-10.357 L -6.945,-15.038 L 0.312,-15.038 L 0.312,-18.15 L -9.701,-18.15 L -9.701,0 L 0,0"
           id="path269"
           style="fill:#231f20;fill-opacity:1;fill-rule:nonzero;stroke:none" />
      </g>
      <g
         transform="matrix(1.25,0,0,-1.25,247.97918,189.53651)"
         id="g271">
        <path
           d="M 0,0 L 3.767,0 C 4.409,0 5.567,0.921 5.401,2.713 C 5.401,4.008 4.961,4.755 3.73,4.755 L 0,4.755 L 0,0 z M -2.756,7.867 L 4.685,7.867 C 6.026,7.793 7.386,6.946 7.772,4.979 C 7.955,4.182 8.231,2.888 7.9,1.319 C 7.569,-0.25 6.982,-0.822 6.081,-1.544 C 6.541,-1.967 7.423,-2.415 7.569,-4.059 C 7.643,-4.806 7.68,-7.196 7.698,-8.117 C 7.698,-9.138 7.919,-9.362 8.213,-9.611 L 8.213,-10.283 L 5.255,-10.283 C 5.034,-9.736 4.924,-9.187 4.888,-8.59 C 4.85,-7.694 4.85,-6.25 4.888,-4.93 C 4.85,-3.71 4.189,-3.113 3.234,-3.113 L 0,-3.113 L 0,-10.283 L -2.756,-10.283 L -2.756,7.867"
           id="path273"
           style="fill:#231f20;fill-opacity:1;fill-rule:nonzero;stroke:none" />
      </g>
      <g
         transform="matrix(1.25,0,0,-1.25,271.96793,197.50401)"
         id="g275">
        <path
           d="M 0,0 C 0.881,1.096 1.322,3.062 1.341,5.029 C 1.322,6.996 0.881,8.963 0,10.059 C -0.699,10.93 -1.581,11.278 -2.463,11.278 C -3.344,11.278 -4.226,10.93 -4.925,10.059 C -5.807,8.963 -6.247,6.996 -6.266,5.029 C -6.247,3.062 -5.807,1.096 -4.925,0 C -4.226,-0.872 -3.344,-1.22 -2.463,-1.22 C -1.581,-1.22 -0.699,-0.872 0,0 z M 2.002,-2.216 C 0.881,-3.785 -0.754,-4.482 -2.463,-4.482 C -4.171,-4.482 -5.807,-3.785 -6.927,-2.216 C -8.176,-0.448 -8.911,2.29 -8.911,5.029 C -8.911,7.768 -8.176,10.507 -6.927,12.274 C -5.807,13.843 -4.171,14.541 -2.463,14.541 C -0.754,14.541 0.881,13.843 2.002,12.274 C 3.251,10.507 3.986,7.768 3.986,5.029 C 3.986,2.29 3.251,-0.448 2.002,-2.216"
           id="path277"
           style="fill:#231f20;fill-opacity:1;fill-rule:nonzero;stroke:none" />
      </g>
      <g
         transform="matrix(1.25,0,0,-1.25,283.37668,179.70276)"
         id="g279">
        <path
           d="M 0,0 L 5.419,-12.474 L 5.419,0 L 8.175,0 L 8.175,-18.15 L 5.456,-18.15 L 0.036,-5.502 L 0.036,-18.15 L -2.72,-18.15 L -2.72,0 L 0,0"
           id="path281"
           style="fill:#231f20;fill-opacity:1;fill-rule:nonzero;stroke:none" />
      </g>
      <g
         transform="matrix(1.25,0,0,-1.25,319.72793,194.64151)"
         id="g283">
        <path
           d="M 0,0 C -0.018,-1.843 -0.79,-3.933 -1.801,-5.004 C -2.591,-5.851 -4.097,-6.697 -5.75,-6.772 C -8.727,-6.896 -10.803,-4.307 -11.519,-0.472 C -11.666,0.374 -11.776,1.519 -11.776,2.714 C -11.776,3.934 -11.684,5.179 -11.464,6.2 C -10.711,9.586 -9.112,12.251 -5.64,12.251 C -4.685,12.251 -3.344,12.101 -2.039,10.831 C -0.11,9.063 -0.018,6.723 0,5.801 L -2.627,5.801 C -2.7,6.822 -3.325,9.387 -6.008,9.113 C -7.258,8.988 -8.231,7.769 -8.672,6.225 C -8.855,5.577 -9.039,4.382 -9.094,3.088 C -9.131,1.793 -9.039,0.398 -8.672,-0.722 C -8.231,-2.041 -7.625,-2.838 -6.945,-3.261 C -6.595,-3.461 -6.247,-3.56 -5.861,-3.56 C -5.494,-3.585 -5.089,-3.51 -4.703,-3.361 C -2.792,-2.639 -2.737,-0.796 -2.627,0 L 0,0"
           id="path285"
           style="fill:#231f20;fill-opacity:1;fill-rule:nonzero;stroke:none" />
      </g>
      <g
         transform="matrix(1.25,0,0,-1.25,333.26668,197.50401)"
         id="g287">
        <path
           d="M 0,0 C 0.881,1.096 1.322,3.062 1.34,5.029 C 1.322,6.996 0.881,8.963 0,10.059 C -0.698,10.93 -1.58,11.278 -2.462,11.278 C -3.344,11.278 -4.226,10.93 -4.923,10.059 C -5.806,8.963 -6.247,6.996 -6.265,5.029 C -6.247,3.062 -5.806,1.096 -4.923,0 C -4.226,-0.872 -3.344,-1.22 -2.462,-1.22 C -1.58,-1.22 -0.698,-0.872 0,0 z M 2.002,-2.216 C 0.881,-3.785 -0.753,-4.482 -2.462,-4.482 C -4.171,-4.482 -5.806,-3.785 -6.927,-2.216 C -8.176,-0.448 -8.911,2.29 -8.911,5.029 C -8.911,7.768 -8.176,10.507 -6.927,12.274 C -5.806,13.843 -4.171,14.541 -2.462,14.541 C -0.753,14.541 0.881,13.843 2.002,12.274 C 3.251,10.507 3.986,7.768 3.986,5.029 C 3.986,2.29 3.251,-0.448 2.002,-2.216"
           id="path289"
           style="fill:#231f20;fill-opacity:1;fill-rule:nonzero;stroke:none" />
      </g>
      <g
         transform="matrix(1.25,0,0,-1.25,344.67543,179.70276)"
         id="g291">
        <path
           d="M 0,0 L 5.42,-12.474 L 5.42,0 L 8.175,0 L 8.175,-18.15 L 5.456,-18.15 L 0.037,-5.502 L 0.037,-18.15 L -2.719,-18.15 L -2.719,0 L 0,0"
           id="path293"
           style="fill:#231f20;fill-opacity:1;fill-rule:nonzero;stroke:none" />
      </g>
      <g
         transform="matrix(1.25,0,0,-1.25,367.67418,186.61151)"
         id="g295">
        <path
           d="M 0,0 C 0.037,1.469 -0.863,2.813 -2.755,2.863 C -4.096,2.888 -5.088,2.266 -5.18,0.772 C -5.253,-0.473 -4.941,-0.722 -4.335,-1.045 C -4.023,-1.494 -1.488,-2.042 -0.973,-2.166 C -0.238,-2.34 1.342,-2.788 2.187,-3.959 C 3.731,-6.149 3.014,-10.457 1.342,-11.926 C 0.203,-12.922 -1.358,-13.171 -2.847,-13.196 C -3.526,-13.221 -5.143,-12.897 -6.135,-11.926 C -7.33,-10.756 -7.918,-8.963 -8.01,-7.245 L -5.327,-7.245 C -5.327,-7.718 -5.216,-8.465 -4.758,-9.113 C -4.152,-9.959 -3.159,-10.233 -2.24,-10.183 C -1.322,-10.158 -0.458,-9.785 -0.109,-9.337 C 0.478,-8.59 0.608,-7.171 -0.054,-6.274 C -0.936,-5.03 -3.581,-5.03 -5.308,-4.233 C -6.76,-3.56 -7.954,-2.141 -7.733,0.797 C -7.513,3.684 -5.97,5.827 -2.7,5.827 C -1.983,5.827 0.515,5.752 1.82,3.511 C 2.518,2.29 2.701,0.598 2.592,0 L 0,0"
           id="path297"
           style="fill:#231f20;fill-opacity:1;fill-rule:nonzero;stroke:none" />
      </g>
      <g
         transform="matrix(1.25,0,0,-1.25,386.61543,179.70276)"
         id="g299">
        <path
           d="M 0,0 L 0,-3.112 L -3.913,-3.112 L -3.913,-18.15 L -6.669,-18.15 L -6.669,-3.112 L -10.73,-3.112 L -10.73,0 L 0,0"
           id="path301"
           style="fill:#231f20;fill-opacity:1;fill-rule:nonzero;stroke:none" />
      </g>
      <g
         transform="matrix(1.25,0,0,-1.25,391.92418,193.95651)"
         id="g303">
        <path
           d="M 0,0 L 3.436,0 L 1.653,7.046 L 0,0 z M 7.827,-6.747 L 5.016,-6.747 L 4.097,-3.112 L -0.863,-3.112 L -1.8,-6.747 L -4.677,-6.747 L 0.056,11.403 L 3.234,11.403 L 7.827,-6.747"
           id="path305"
           style="fill:#231f20;fill-opacity:1;fill-rule:nonzero;stroke:none" />
      </g>
      <g
         transform="matrix(1.25,0,0,-1.25,407.73668,179.70276)"
         id="g307">
        <path
           d="M 0,0 L 5.419,-12.474 L 5.419,0 L 8.175,0 L 8.175,-18.15 L 5.456,-18.15 L 0.037,-5.502 L 0.037,-18.15 L -2.719,-18.15 L -2.719,0 L 0,0"
           id="path309"
           style="fill:#231f20;fill-opacity:1;fill-rule:nonzero;stroke:none" />
      </g>
      <g
         transform="matrix(1.25,0,0,-1.25,433.72168,179.70276)"
         id="g311">
        <path
           d="M 0,0 L 0,-3.112 L -3.913,-3.112 L -3.913,-18.15 L -6.668,-18.15 L -6.668,-3.112 L -10.729,-3.112 L -10.729,0 L 0,0"
           id="path313"
           style="fill:#231f20;fill-opacity:1;fill-rule:nonzero;stroke:none" />
      </g>
      <path
         d="M 436.10418,202.39026 L 439.54918,202.39026 L 439.54918,179.70151 L 436.10418,179.70151 L 436.10418,202.39026 z"
         id="path315"
         style="fill:#231f20;fill-opacity:1;fill-rule:nonzero;stroke:none" />
      <g
         transform="matrix(1.25,0,0,-1.25,446.63543,179.70276)"
         id="g317">
        <path
           d="M 0,0 L 5.42,-12.474 L 5.42,0 L 8.176,0 L 8.176,-18.15 L 5.457,-18.15 L 0.037,-5.502 L 0.037,-18.15 L -2.718,-18.15 L -2.718,0 L 0,0"
           id="path319"
           style="fill:#231f20;fill-opacity:1;fill-rule:nonzero;stroke:none" />
      </g>
      <g
         transform="matrix(1.25,0,0,-1.25,328.47168,141.86401)"
         id="g321">
        <path
           d="M 0,0 L -14.338,-6.34 L -2.232,-6.324 L 0,0"
           id="path323"
           style="fill:#231f20;fill-opacity:1;fill-rule:nonzero;stroke:none" />
      </g>
      <g
         transform="matrix(1.25,0,0,-1.25,328.47168,157.67401)"
         id="g325">
        <path
           d="M 0,0 L -14.338,6.342 L -2.232,6.324 L 0,0"
           id="path327"
           style="fill:#231f20;fill-opacity:1;fill-rule:nonzero;stroke:none" />
      </g>
      <g
         transform="matrix(1.25,0,0,-1.25,302.66543,131.82526)"
         id="g329">
        <path
           d="M 0,0 L 6.34,-14.337 L 6.324,-2.232 L 0,0"
           id="path331"
           style="fill:#231f20;fill-opacity:1;fill-rule:nonzero;stroke:none" />
      </g>
      <g
         transform="matrix(1.25,0,0,-1.25,318.47418,131.82526)"
         id="g333">
        <path
           d="M 0,0 L -6.34,-14.337 L -6.323,-2.232 L 0,0"
           id="path335"
           style="fill:#231f20;fill-opacity:1;fill-rule:nonzero;stroke:none" />
      </g>
      <g
         transform="matrix(1.25,0,0,-1.25,292.62668,157.63026)"
         id="g337">
        <path
           d="M 0,0 L 14.338,6.34 L 2.232,6.323 L 0,0"
           id="path339"
           style="fill:#231f20;fill-opacity:1;fill-rule:nonzero;stroke:none" />
      </g>
      <g
         transform="matrix(1.25,0,0,-1.25,292.62668,141.82276)"
         id="g341">
        <path
           d="M 0,0 L 14.338,-6.339 L 2.232,-6.323 L 0,0"
           id="path343"
           style="fill:#231f20;fill-opacity:1;fill-rule:nonzero;stroke:none" />
      </g>
      <g
         transform="matrix(1.25,0,0,-1.25,318.43168,167.67026)"
         id="g345">
        <path
           d="M 0,0 L -6.34,14.339 L -6.323,2.233 L 0,0"
           id="path347"
           style="fill:#231f20;fill-opacity:1;fill-rule:nonzero;stroke:none" />
      </g>
      <g
         transform="matrix(1.25,0,0,-1.25,302.62293,167.67026)"
         id="g349">
        <path
           d="M 0,0 L 6.341,14.339 L 6.324,2.233 L 0,0"
           id="path351"
           style="fill:#231f20;fill-opacity:1;fill-rule:nonzero;stroke:none" />
      </g>
    </g>
  </g>
</svg>
